<?xml version="1.0" standalone="no"?>
<!DOCTYPE svg PUBLIC "-//W3C//DTD SVG 20010904//EN"
 "http://www.w3.org/TR/2001/REC-SVG-20010904/DTD/svg10.dtd">
<svg version="1.0" xmlns="http://www.w3.org/2000/svg"
 width="1587.000000pt" height="2245.000000pt" viewBox="0 0 1587.000000 2245.000000"
 preserveAspectRatio="xMidYMid meet">

<g transform="translate(0.000000,2245.000000) scale(0.100000,-0.100000)"
fill="#000000" stroke="none">
<path d="M9944 17825 c-147 -32 -318 -161 -377 -285 -59 -125 -4376 -11300
-4388 -11358 -32 -168 28 -365 149 -490 126 -129 322 -191 499 -157 172 33
324 146 396 295 33 69 4308 11104 4364 11265 69 201 22 412 -128 570 -136 143
-324 202 -515 160z m212 -344 c84 -38 144 -147 127 -233 -10 -54 -4342 -11239
-4371 -11288 -54 -87 -181 -125 -278 -81 -89 41 -150 159 -127 248 6 21 988
2563 2182 5648 1454 3755 2181 5622 2200 5645 59 75 177 102 267 61z"/>
<path d="M4863 15710 c-94 -25 -130 -44 -243 -131 -546 -421 -4410 -3469
-4455 -3514 -204 -205 -204 -562 0 -768 83 -84 4506 -3557 4582 -3599 71 -38
188 -68 265 -68 239 1 472 183 533 415 18 69 20 192 4 267 -18 86 -72 188
-136 255 -43 45 -2485 1974 -3871 3057 -34 27 -62 52 -62 55 0 4 872 693 1938
1531 1065 839 1962 1550 1993 1582 200 204 200 552 0 761 -142 149 -350 209
-548 157z m251 -344 c112 -61 149 -210 78 -315 -19 -28 -674 -549 -2137 -1700
-1160 -914 -2110 -1666 -2110 -1671 0 -6 952 -758 2115 -1673 2026 -1593 2116
-1665 2143 -1717 59 -117 14 -245 -112 -310 -38 -19 -133 -16 -177 6 -58 29
-4505 3529 -4531 3566 -62 87 -49 211 29 286 35 33 4257 3360 4434 3493 93 71
182 83 268 35z"/>
<path d="M10765 15723 c-238 -53 -402 -213 -450 -439 -18 -87 -18 -141 0 -229
19 -89 67 -185 126 -250 26 -27 925 -741 1997 -1585 1073 -844 1951 -1537
1951 -1540 0 -3 -873 -691 -1940 -1530 -1101 -865 -1966 -1552 -1999 -1587
-92 -97 -150 -242 -150 -373 0 -116 50 -256 122 -344 117 -143 257 -211 433
-210 117 0 193 19 278 70 88 51 4492 3516 4564 3590 161 165 203 422 101 630
-44 91 -96 148 -242 264 -1018 809 -4382 3444 -4433 3472 -38 21 -98 44 -135
53 -63 14 -178 18 -223 8z m199 -356 c24 -12 1045 -811 2270 -1775 1518 -1196
2235 -1766 2253 -1793 18 -27 27 -57 30 -101 7 -81 -20 -143 -86 -198 -123
-103 -4440 -3493 -4466 -3507 -149 -80 -326 27 -326 197 -1 62 17 107 58 151
13 14 971 770 2128 1680 1157 910 2104 1656 2104 1659 0 3 -930 736 -2066
1630 -1137 894 -2093 1647 -2125 1673 -80 66 -101 110 -96 201 4 86 39 146
102 178 83 43 145 44 220 5z"/>
</g>
</svg>
